<svg id="Layer_5" data-name="Layer 5" xmlns="http://www.w3.org/2000/svg" viewBox="0 0 80 80"><path d="M44,50H16v4H44Z"/><path d="M44,58H16v4H44Z"/><path d="M18,26H16v4h2.3A26,26,0,0,1,18,26Z"/><path d="M19.41,34H16v4h5.2A28.75,28.75,0,0,1,19.41,34Z"/><path d="M24.11,42H16v4h12.8A22.62,22.62,0,0,1,24.11,42Z"/><path d="M70.61,57.4l2.8-2.8-15.9-16A19.78,19.78,0,0,0,62,26,20.06,20.06,0,0,0,42,6a20.27,20.27,0,0,0-16,8H6V74H54V42c.2-.2.4-.3.6-.5ZM42,10A16,16,0,1,1,26,26,16,16,0,0,1,42,10Zm8,60H10V18h13.7A19.8,19.8,0,0,0,22,26,20.06,20.06,0,0,0,42,46a19.8,19.8,0,0,0,8-1.7Z"/></svg>