<svg id="Layer_5" data-name="Layer 5" xmlns="http://www.w3.org/2000/svg" viewBox="0 0 80 80"><path d="M74,40A34,34,0,0,0,40,6c-.45,0-.89,0-1.34,0A34,34,0,0,0,40,74c.45,0,.89,0,1.34,0A34,34,0,0,0,74,40ZM10,40a29.83,29.83,0,0,1,6-18,25.81,25.81,0,0,0-2,10V46c0,8.76,8.77,22,22,22,13.59,0,22-11.42,22-22V44H54v2A18,18,0,0,1,36,64C25.56,64,18,53.25,18,46V32A22,22,0,0,1,38.87,10c.38,0,.75,0,1.13,0A30,30,0,0,1,64,58a25.81,25.81,0,0,0,2-10V34c0-8.76-8.77-22-22-22C30.41,12,22,23.42,22,34v2h4V34A18,18,0,0,1,44,16c10.44,0,18,10.75,18,18V48A22,22,0,0,1,41.13,70c-.38,0-.75,0-1.13,0A30,30,0,0,1,10,40Z"/><path d="M40,44a2,2,0,0,0,2-2V38a2,2,0,0,0-4,0v4A2,2,0,0,0,40,44Z"/><path d="M58,34a13.9,13.9,0,1,0-27.79,0A9.78,9.78,0,0,0,30,36v8A10,10,0,0,0,40,54a9.74,9.74,0,0,0,2.11-.23A9.78,9.78,0,0,1,35.9,56,10,10,0,0,1,26,46V44H22v2a13.9,13.9,0,1,0,27.79,0A9.78,9.78,0,0,0,50,44V36A10,10,0,0,0,40,26a9.74,9.74,0,0,0-2.11.23A9.78,9.78,0,0,1,44.1,24,10,10,0,0,1,54,34v2h4ZM46,36v8a6,6,0,0,1-12,0V36a6,6,0,0,1,12,0Z"/></svg>