<svg id="Layer_5" data-name="Layer 5" xmlns="http://www.w3.org/2000/svg" viewBox="0 0 80 80"><path d="M38,18c13.82,0,20,10,20,20,0,12.61-8.7,15.93-10,16v4c3.09,0,14-4.79,14-20,0-14.13-9.87-24-24-24C15.14,14,10,30.29,10,36h4C14,35.82,15,18,38,18Z"/><path d="M42,62C28.18,62,22,52,22,42c0-12.61,8.7-15.93,10-16V22c-3.09,0-14,4.79-14,20,0,14.13,9.87,24,24,24,22.86,0,28-16.29,28-22H66C66,44.18,65,62,42,62Z"/><path d="M54,38c0-11.31-9.12-16-14-16v4c2.67,0,10,2.84,10,12,0,2.77-1.25,8-6,8-5.65,0-6-5-6-6H34c0,3.46,2.09,10,10,10C50.57,50,54,44,54,38Z"/><path d="M36,34c5.65,0,6,5,6,6h4c0-3.46-2.09-10-10-10-6.57,0-10,6-10,12,0,11.31,9.12,16,14,16V54c-2.67,0-10-2.84-10-12C30,39.23,31.25,34,36,34Z"/><path d="M42,70C25.51,70,14,59.31,14,44H10c0,17.38,13.46,30,32,30,14.83,0,21.29-6.46,23.41-8.59l-2.82-2.82C60.75,64.42,55.17,70,42,70Z"/><path d="M38,10c16.49,0,28,10.69,28,26h4C70,18.62,56.54,6,38,6c-14.83,0-21.29,6.46-23.41,8.59l2.82,2.82C19.25,15.58,24.83,10,38,10Z"/></svg>