<svg id="Layer_5" data-name="Layer 5" xmlns="http://www.w3.org/2000/svg" viewBox="0 0 80 80"><path d="M36,16c15.12,0,22,11.4,22,22,0,12.61-8.7,15.93-10,16v4c3.09,0,14-4.79,14-20,0-12.92-8.93-26-26-26C14.63,12,10,31.24,10,36h4C14,32,17.92,16,36,16Z"/><path d="M44,64C28.88,64,22,52.6,22,42c0-12.61,8.7-15.93,10-16V22c-3.09,0-14,4.79-14,20,0,12.92,8.93,26,26,26,21.37,0,26-19.24,26-24H66C66,48,62.08,64,44,64Z"/><path d="M54,38c0-11.31-9.12-16-14-16v4c2.67,0,10,2.84,10,12,0,2.77-1.25,8-6,8-5.65,0-6-5-6-6H34c0,3.46,2.09,10,10,10C50.57,50,54,44,54,38Z"/><path d="M36,34c5.65,0,6,5,6,6h4c0-3.46-2.09-10-10-10-6.57,0-10,6-10,12,0,11.31,9.12,16,14,16V54c-2.67,0-10-2.84-10-12C30,39.23,31.25,34,36,34Z"/><path d="M40,2A38,38,0,1,0,78,40,38,38,0,0,0,40,2Zm3.85,71.78C26.82,73.7,14,60.93,14,44H10a33.89,33.89,0,0,0,7,21A34,34,0,0,1,36.15,6.22C53.18,6.3,66,19.07,66,36h4a33.89,33.89,0,0,0-7-21,34,34,0,0,1-19.14,58.8Z"/></svg>