<svg id="Layer_5" data-name="Layer 5" xmlns="http://www.w3.org/2000/svg" viewBox="0 0 80 80"><path d="M48.14,34.64a10.56,10.56,0,0,0,6.2,1.9,11,11,0,0,0,7.8-3.2l9.9-9.9-2.8-2.8-9.9,9.9a7,7,0,0,1-9.9-9.9l9.9-9.9-2.9-2.8-9.9,9.9a11.07,11.07,0,0,0-1.3,14l-5.3,5.3L14,11.24l-1.4,1.4a13.91,13.91,0,0,0-4.1,9.9,14.09,14.09,0,0,0,4.1,9.9l16.1,16.1-18.2,18,2.8,2.8,18.2-18,5.2,5.2,5.5-5.5-2.8-2.8-2.7,2.7-21.3-21.4A9.83,9.83,0,0,1,14.24,17l52.3,52.4,2.8-2.8-26.5-26.7Z"/><path d="M64.94,16.39,55,26.29l2.83,2.83,9.9-9.9Z"/><path d="M60.75,12.14,50.86,22l2.82,2.83,9.9-9.9Z"/></svg>