<svg id="Layer_5" data-name="Layer 5" xmlns="http://www.w3.org/2000/svg" viewBox="0 0 80 80"><path d="M74,45.56V34.44L67,32.7a28.2,28.2,0,0,0-2.75-6.65L68,19.89,60.11,12,54,15.72A28.2,28.2,0,0,0,47.3,13L45.56,6H34.44L32.7,13a28.2,28.2,0,0,0-6.65,2.75L19.89,12,12,19.89l3.69,6.16A28.2,28.2,0,0,0,13,32.7L6,34.44V45.56l7,1.74A28.2,28.2,0,0,0,15.72,54L12,60.11,19.89,68l6.16-3.69A28.2,28.2,0,0,0,32.7,67l1.74,7H45.56l1.74-7A28.2,28.2,0,0,0,54,64.28L60.11,68,68,60.11,64.28,54A28.2,28.2,0,0,0,67,47.3ZM63.69,44l-.27,1.2a23.76,23.76,0,0,1-3.17,7.65l-.66,1,3.35,5.58-3.45,3.45-5.58-3.35-1,.66a23.76,23.76,0,0,1-7.65,3.17l-1.2.27L42.44,70H37.56L36,63.69l-1.2-.27a23.76,23.76,0,0,1-7.65-3.17l-1-.66-5.58,3.35-3.45-3.45,3.35-5.58-.66-1a23.76,23.76,0,0,1-3.17-7.65L16.31,44,10,42.44V37.56L16.31,36l.27-1.2a23.76,23.76,0,0,1,3.17-7.65l.66-1-3.35-5.58,3.45-3.45,5.58,3.35,1-.66a23.76,23.76,0,0,1,7.65-3.17l1.2-.27L37.56,10h4.88L44,16.31l1.2.27a23.76,23.76,0,0,1,7.65,3.17l1,.66,5.58-3.35,3.45,3.45-3.35,5.58.66,1a23.76,23.76,0,0,1,3.17,7.65l.27,1.2L70,37.56v4.88Z"/><path d="M40,26A14,14,0,1,0,54,40,14,14,0,0,0,40,26Zm0,24A10,10,0,1,1,50,40,10,10,0,0,1,40,50Z"/></svg>