<svg id="Layer_5" data-name="Layer 5" xmlns="http://www.w3.org/2000/svg" viewBox="0 0 80 80"><path d="M40,6A34,34,0,1,0,74,40,34,34,0,0,0,40,6Zm2,22a61.87,61.87,0,0,0,10.51-1.2A57.47,57.47,0,0,1,54,38H42Zm0-4V10.33c3.84,1.23,7.23,6,9.42,12.58A58.61,58.61,0,0,1,42,24ZM38,10.33V24a58.61,58.61,0,0,1-9.42-1.06C30.77,16.3,34.16,11.56,38,10.33ZM38,28V38H26a57.47,57.47,0,0,1,1.45-11.23A61.87,61.87,0,0,0,38,28ZM22,38h-12a29.82,29.82,0,0,1,5.5-15.38,40.53,40.53,0,0,0,8,3.2A60.46,60.46,0,0,0,22,38Zm0,4a60.46,60.46,0,0,0,1.56,12.18,40.53,40.53,0,0,0-8,3.2A29.82,29.82,0,0,1,10.07,42Zm4,0H38V52a61.87,61.87,0,0,0-10.51,1.2A57.47,57.47,0,0,1,26,42ZM38,56V69.67c-3.84-1.23-7.23-6-9.42-12.58A58.61,58.61,0,0,1,38,56Zm4,13.64V56a58.61,58.61,0,0,1,9.42,1.06C49.23,63.7,45.84,68.44,42,69.67ZM42,52V42H54a57.47,57.47,0,0,1-1.45,11.23A61.87,61.87,0,0,0,42,52ZM58,42h12a29.82,29.82,0,0,1-5.5,15.38,40.53,40.53,0,0,0-8-3.2A60.46,60.46,0,0,0,58,42Zm0-4a60.46,60.46,0,0,0-1.56-12.18,40.53,40.53,0,0,0,8-3.2A29.82,29.82,0,0,1,69.93,38Zm3.87-18.54A36.79,36.79,0,0,1,55.34,22a33,33,0,0,0-5.18-10.19A30.14,30.14,0,0,1,61.84,19.46Zm-32-7.68A33,33,0,0,0,24.66,22a36.79,36.79,0,0,1-6.5-2.51A30.14,30.14,0,0,1,29.84,11.78ZM18.16,60.54A36.79,36.79,0,0,1,24.66,58a33,33,0,0,0,5.18,10.19A30.14,30.14,0,0,1,18.16,60.54Zm32,7.68A33,33,0,0,0,55.34,58a36.79,36.79,0,0,1,6.5,2.51A30.14,30.14,0,0,1,50.16,68.22Z"/></svg>