<svg id="Layer_5" data-name="Layer 5" xmlns="http://www.w3.org/2000/svg" viewBox="0 0 80 80"><defs><style>.cls-1{fill-rule:evenodd;}</style></defs><path class="cls-1" d="M26,29A14,14,0,1,1,40,43,14,14,0,0,1,26,29ZM40,19A10,10,0,1,0,50,29,10,10,0,0,0,40,19Z"/><path class="cls-1" d="M18,29A22,22,0,1,1,42,50.91V71.07H38V50.91A22,22,0,0,1,18,29ZM40,11A18,18,0,1,0,58,29,18,18,0,0,0,40,11Z"/><path class="cls-1" d="M64,51.07a18,18,0,0,0-18,18v2h2a18,18,0,0,0,18-18v-2ZM50.17,66.9A14,14,0,0,1,61.83,55.24,14,14,0,0,1,50.17,66.9Z"/><path class="cls-1" d="M16,51.07H14v2a18,18,0,0,0,18,18h2v-2A18,18,0,0,0,16,51.07Zm2.17,4.17A14,14,0,0,1,29.83,66.9,14,14,0,0,1,18.17,55.24Z"/></svg>