<svg id="Layer_5" data-name="Layer 5" xmlns="http://www.w3.org/2000/svg" viewBox="0 0 80 80"><path d="M6,16V64H74V16ZM70,27.8A10,10,0,0,1,62.2,20H70ZM58.16,60H21.84A14,14,0,0,0,10,48.16V31.84A14,14,0,0,0,21.84,20H58.16A14,14,0,0,0,70,31.84V48.16A14,14,0,0,0,58.16,60ZM17.8,20A10,10,0,0,1,10,27.8V20ZM10,52.2A10,10,0,0,1,17.8,60H10ZM62.2,60A10,10,0,0,1,70,52.2V60Z"/><path d="M40,22A18,18,0,1,0,58,40,18,18,0,0,0,40,22Zm0,32A14,14,0,1,1,54,40,14,14,0,0,1,40,54Z"/><path d="M40,30A10,10,0,1,0,50,40,10,10,0,0,0,40,30Zm0,16a6,6,0,1,1,6-6A6,6,0,0,1,40,46Z"/></svg>