<svg id="Layer_5" data-name="Layer 5" xmlns="http://www.w3.org/2000/svg" viewBox="0 0 80 80"><path d="M70.52,35V19h-16v1.07L48,16.31V6H32V16.31l-6.52,3.76V19h-16V35h6V45h-6V61h16V59.93L32,63.69V74H48V63.69l6.52-3.76V61h16V45h-6V35Zm-12-12h8v8h-8Zm-4,1.69v4.62L48,33.07V32H42V22h6V20.93ZM36,44V36h8v8Zm0-34h8v8H36ZM32,20.93V22h6V32H32v1.07l-6.52-3.76V24.69ZM13.48,23h8v8h-8Zm6,12h6V33.93L32,37.69v4.62l-6.52,3.76V45h-6Zm2,22h-8V49h8Zm4-1.69V50.69L32,46.93V48h6V58H32v1.07ZM44,70H36V62h8Zm4-10.93V58H42V48h6V46.93l6.52,3.76v4.62ZM66.52,57h-8V49h8Zm-6-12h-6v1.07L48,42.31V37.69l6.52-3.76V35h6Z"/></svg>