<svg id="Layer_5" data-name="Layer 5" xmlns="http://www.w3.org/2000/svg" viewBox="0 0 80 80"><path d="M71.66,60.34,51.31,40l2.3-2.29A16.13,16.13,0,0,0,72,14.43l-1.28-2.35L58.83,24,56,21.17,67.92,9.25,65.57,8A16.13,16.13,0,0,0,42.29,26.39l-4.53,4.54L25.64,18.82l-4.15-8.31L11.61,5.57l-6,6,4.94,9.89,8.31,4.15L30.93,37.76,8.34,60.34A8,8,0,0,0,19.66,71.66L40,51.31,60.34,71.66A8,8,0,0,0,71.66,60.34Zm-50.48-38-7.69-3.85L10.43,12.4l2-2,6.12,3.05,3.85,7.69L34.93,33.76l-1.17,1.17ZM16.83,68.83a4.1,4.1,0,0,1-5.66,0,4,4,0,0,1,0-5.66L33.76,40.59h0l6.83-6.83h0l6.29-6.29-.44-1.2A12.12,12.12,0,0,1,57.88,10a12.37,12.37,0,0,1,3.19.42L50.34,21.17l8.49,8.49L69.56,18.93A12.14,12.14,0,0,1,53.73,33.56l-1.2-.44Zm52,0a4.1,4.1,0,0,1-5.66,0L42.83,48.49l5.66-5.66L68.83,63.17a4,4,0,0,1,0,5.66Z"/></svg>