<svg id="Layer_5" data-name="Layer 5" xmlns="http://www.w3.org/2000/svg" viewBox="0 0 80 80"><path d="M40,14A26,26,0,1,0,66,40,26.08,26.08,0,0,0,40,14Zm0,48A22,22,0,1,1,62,40,22.06,22.06,0,0,1,40,62Z"/><path d="M42,.1H38v8h4Z"/><path d="M13.18,10.37,10.35,13.2,16,18.85,18.84,16Z"/><path d="M8.1,38H.1v4h8Z"/><path d="M16,61.15l-5.65,5.66,2.82,2.83L18.87,64Z"/><path d="M42,71.9H38v8h4Z"/><path d="M64,61.12,61.17,64l5.66,5.66,2.83-2.83Z"/><path d="M79.9,38h-8v4h8Z"/><path d="M66.8,10.34,61.14,16,64,18.82l5.65-5.66Z"/></svg>