<svg id="Layer_5" data-name="Layer 5" xmlns="http://www.w3.org/2000/svg" viewBox="0 0 80 80"><path d="M14.06,47.17l-7,15.19a12.09,12.09,0,0,0-1,3.75,7.94,7.94,0,0,0,15.88,0,11.28,11.28,0,0,0-1-3.75Zm0,22.88a4,4,0,0,1-3.94-3.94A8.69,8.69,0,0,1,10.73,64l3.33-7.23,3.31,7.2A8.45,8.45,0,0,1,18,66.11,4,4,0,0,1,14.06,70.05Z"/><path d="M52.47,6.76,49.29,9.94A18,18,0,0,0,24,35.23l-3.18,3.18L52.43,60.54,74.6,38.37ZM28.16,14.1a14,14,0,0,1,18.27-1.3L26.86,32.37A14,14,0,0,1,28.16,14.1ZM51.93,13l2,2.9-24,24-2.9-2Zm0,42.38L33.24,42.23l23-23L69.4,37.91Z"/></svg>