<svg id="Layer_5" data-name="Layer 5" xmlns="http://www.w3.org/2000/svg" viewBox="0 0 80 80"><path d="M25.86,33.85a8,8,0,1,0-5.66-2.34A7.94,7.94,0,0,0,25.86,33.85ZM23,23a4,4,0,1,1,0,5.66A4,4,0,0,1,23,23Z"/><path d="M48.49,48.49a8,8,0,1,0,11.31,0A8,8,0,0,0,48.49,48.49ZM57,57a4,4,0,1,1,0-5.66A4,4,0,0,1,57,57Z"/><path d="M32.59,63.41l2,2A26,26,0,0,1,14,40H10A30,30,0,0,0,35.51,69.66l-2.92,2.93,2.82,2.82L42.83,68l-7.42-7.41Z"/><path d="M47.41,16.59l-2-2A26,26,0,0,1,66,40h4A30,30,0,0,0,44.49,10.34l2.92-2.93L44.59,4.59,37.17,12l7.42,7.41Z"/><path d="M44.24,44.24a14,14,0,1,0,19.8,0A14,14,0,0,0,44.24,44.24Zm17,17a10,10,0,1,1,0-14.14A10,10,0,0,1,61.21,61.21Z"/><path d="M25.86,39.85A14,14,0,1,0,16,35.76,14,14,0,0,0,25.86,39.85ZM18.79,18.79a10,10,0,1,1,0,14.14A10,10,0,0,1,18.79,18.79Z"/></svg>