<svg id="Layer_5" data-name="Layer 5" xmlns="http://www.w3.org/2000/svg" viewBox="0 0 80 80"><path d="M66,14V8H62v6H56v4h6v6h4V18h6V14Z"/><path d="M61.4,45a15.52,15.52,0,0,0,.4-2.1A22,22,0,1,0,18,40.1a21.23,21.23,0,0,0,1.4,7.5L8,49.9V54l27.1-5.5a1.76,1.76,0,0,1,2,1.1,2.44,2.44,0,0,1,0,1.2l-.2.2a1.38,1.38,0,0,1-.3.4c-.1.1-.3.2-.4.3l-7.4,3.7-1.9,1a3,3,0,0,0-1.6,3.4,2.9,2.9,0,0,0,2.9,2.3H43.6a2.79,2.79,0,0,0,1.8-.6l.2-.1L59.2,50.8l1.9-1.5a1,1,0,0,1,1.6.8.83.83,0,0,1-.3.7L43.2,70H8v4H43.6a2.72,2.72,0,0,0,2.1-.9L65.3,53.5a5,5,0,0,0,0-7.1A5.25,5.25,0,0,0,61.4,45ZM22,40a18,18,0,0,1,36,0,17.84,17.84,0,0,1-1.9,8.1L43.9,57.6a18.35,18.35,0,0,1-9.6-.5l3.6-1.8A7,7,0,0,0,39.6,54H40A14,14,0,1,0,26,40a14.54,14.54,0,0,0,1.3,5.9l-1.6.3-2.4.5A17,17,0,0,1,22,40Zm12.3,4.5-2.8.6A9.88,9.88,0,0,1,30.1,39,10,10,0,1,1,50,41.1a10.19,10.19,0,0,1-8.8,8.8,5.08,5.08,0,0,0-.3-1.7A5.78,5.78,0,0,0,34.3,44.5Z"/></svg>