<svg id="Layer_5" data-name="Layer 5" xmlns="http://www.w3.org/2000/svg" viewBox="0 0 80 80"><defs><style>.cls-1{fill-rule:evenodd;}</style></defs><path class="cls-1" d="M59.14,35H54V31H48.92A12,12,0,1,0,30,16.36,12,12,0,1,0,11.07,31H8V59H54V55h5.12L72,67.87V22.18ZM32,22.57a8,8,0,1,1,0,.88c0-.15,0-.3,0-.45S32,22.71,32,22.57Zm-2,7.09A11.55,11.55,0,0,0,31,31H28.93A12.62,12.62,0,0,0,30,29.66ZM20,15a8,8,0,0,1,8,7.57c0,.15,0,.3,0,.45s0,.29,0,.43A8,8,0,1,1,20,15ZM50,55H12V35H50Zm7.95-4H54V39h3.95Zm10,7.2-6-6V37.84l6-6Z"/></svg>