<svg id="Layer_5" data-name="Layer 5" xmlns="http://www.w3.org/2000/svg" viewBox="0 0 80 80"><path d="M74,12a6,6,0,0,0-6-6,6,6,0,0,0-5.6,4H10V62.4A6,6,0,0,0,6,68a6,6,0,0,0,6,6,6,6,0,0,0,5.6-4H70V17.6A6,6,0,0,0,74,12ZM12,70a2,2,0,1,1,2-2A2,2,0,0,1,12,70Zm5.6-4A6.1,6.1,0,0,0,14,62.4V14H62.4A6.1,6.1,0,0,0,66,17.6V66ZM68,14a2,2,0,1,1,2-2A2,2,0,0,1,68,14Z"/><path d="M50.6,33.4,55.2,38H42V24.8l4.6,4.6,2.8-2.8L40,17.2l-9.4,9.4,2.8,2.8L38,24.8V38H18v4H38V62h4V42H55.2l-4.6,4.6,2.8,2.8L62.8,40l-9.4-9.4Z"/></svg>