<svg id="Layer_5" data-name="Layer 5" xmlns="http://www.w3.org/2000/svg" viewBox="0 0 80 80"><path d="M65.75,14c-.15,0-15.13,1.77-24.33-7.42L40,5.19,38.59,6.6C29.43,15.74,14.45,14,14.25,14L12,13.73V40c0,16.06,10.09,22.67,24.06,31.81l2.84,1.86,1.1.73,1.1-.73,2.84-1.86C57.91,62.67,68,56.06,68,40V13.73ZM64,40c0,13.9-8.85,19.69-22.25,28.46L40,69.61l-1.75-1.15C24.85,59.69,16,53.9,16,40V18.15c4.69.17,15.72-.29,24-7.41,8.28,7.12,19.3,7.58,24,7.41Z"/><path d="M45.16,31,40,22l-5.16,9H24.55l5.15,9-5.15,9H34.84L40,58l5.16-9H55.45L50.3,40l5.15-9Zm3.39,14H42.84L40,50l-2.84-5H31.45l2.85-5-2.85-5h5.71L40,30l2.84,5h5.71L45.7,40Z"/></svg>