<svg id="Layer_5" data-name="Layer 5" xmlns="http://www.w3.org/2000/svg" viewBox="0 0 80 80"><path d="M66,19.39V10H14v9.39l-8,12V32a10,10,0,0,0,8,9.8V70H66V41.8A10,10,0,0,0,74,32v-.61ZM62,41.8V56H58V46H42V56H18V41.8A10,10,0,0,0,24,38a10,10,0,0,0,16,0,10,10,0,0,0,16,0A10,10,0,0,0,62,41.8ZM50.56,22l2.66,8H42V22Zm3.09,12a6,6,0,0,1-11.3,0ZM38,30H26.78l2.66-8H38Zm-.35,4a6,6,0,0,1-11.3,0ZM22.56,30H11.74l5.33-8h8.15Zm34.88,0-2.66-8h8.15l5.33,8ZM18,14H62v4H18ZM10.37,34H21.65a6,6,0,0,1-11.28,0ZM18,66V60H42v6Zm28,0V50h8V66Zm12,0V60h4v6Zm6-28a6,6,0,0,1-5.65-4H69.63A6,6,0,0,1,64,38Z"/></svg>