<svg id="Layer_5" data-name="Layer 5" xmlns="http://www.w3.org/2000/svg" viewBox="0 0 80 80"><path d="M66,14V8H62v6H56v4h6v6h4V18h6V14Z"/><path d="M50,28A22,22,0,1,0,72,50,22.06,22.06,0,0,0,50,28Zm0,40A18,18,0,1,1,68,50,18.05,18.05,0,0,1,50,68Z"/><path d="M50,36A14,14,0,1,0,64,50,14,14,0,0,0,50,36Zm0,24A10,10,0,1,1,60,50,10,10,0,0,1,50,60Z"/><path d="M12,30a18,18,0,0,1,35-5.8c1-.1,2-.2,3-.2h1.2A22,22,0,1,0,24,51.2V50c0-1,.1-2,.2-3A17.94,17.94,0,0,1,12,30Z"/><path d="M20,30a10,10,0,0,1,19.3-3.7c1.2-.5,2.5-1,3.8-1.4a14,14,0,0,0-13-9A14.21,14.21,0,0,0,16,30a13.9,13.9,0,0,0,9,13,29.16,29.16,0,0,1,1.4-3.8A9.76,9.76,0,0,1,20,30Z"/></svg>