<svg id="Layer_5" data-name="Layer 5" xmlns="http://www.w3.org/2000/svg" viewBox="0 0 80 80"><path d="M12,62a6,6,0,0,0,0,12,6,6,0,0,0,5.6-4H68V66H17.6A6,6,0,0,0,12,62Zm0,8a2,2,0,1,1,2-2A2,2,0,0,1,12,70Z"/><path d="M12,18a6,6,0,0,0,5.6-4H68V10H17.6A6,6,0,0,0,12,6a6,6,0,0,0,0,12Zm0-8a2,2,0,1,1-2,2A2,2,0,0,1,12,10Z"/><path d="M68,28a6,6,0,0,0-5.6,4H42V24.8l4.6,4.6,2.8-2.8L40,17.2l-9.4,9.4,2.8,2.8L38,24.8V32H17.6A6,6,0,0,0,12,28a6,6,0,0,0,0,12,6,6,0,0,0,5.6-4H38V55.2l-4.6-4.6-2.8,2.8L40,62.8l9.4-9.4-2.8-2.8L42,55.2V36H62.4A6,6,0,0,0,68,40a6,6,0,0,0,0-12ZM12,36a2,2,0,1,1,2-2A2,2,0,0,1,12,36Zm56,0a2,2,0,1,1,2-2A2,2,0,0,1,68,36Z"/></svg>