<svg id="Layer_5" data-name="Layer 5" xmlns="http://www.w3.org/2000/svg" viewBox="0 0 80 80"><path d="M58,40A18,18,0,1,0,40,58,18,18,0,0,0,58,40ZM26,40A14,14,0,1,1,40,54,14,14,0,0,1,26,40Z"/><path d="M51.31,61.8h2.87A26,26,0,0,1,14,40H10A30,30,0,0,0,57.8,64.16v4.12h4V57.8H51.31Z"/><path d="M61.21,18.79a30,30,0,0,0-39-2.95V11.72h-4V22.2H28.69v-4H25.82A26,26,0,0,1,66,40h4A29.78,29.78,0,0,0,61.21,18.79Z"/><path d="M50,40A10,10,0,1,0,40,50,10,10,0,0,0,50,40ZM34,40a6,6,0,1,1,6,6A6,6,0,0,1,34,40Z"/></svg>